<svg id="SvgjsSvg1001" width="288" height="288" xmlns="http://www.w3.org/2000/svg" version="1.1" xmlns:xlink="http://www.w3.org/1999/xlink" xmlns:svgjs="http://svgjs.com/svgjs">
  <defs id="SvgjsDefs1002"></defs>
  <g id="SvgjsG1008">
    <svg xmlns="http://www.w3.org/2000/svg" enable-background="new 0 0 512 512" viewBox="0 0 512 512" width="288" height="288">
      <path fill="#e41749" d="M286,286h-60V146v-20c0-11.05,8.95-20,20-20s20,8.95,20,20v10v130C266,277.05,274.95,286,286,286
					z" class="color9b4234 svgShape"></path>
      <path fill="#fff591" d="M126,181v85l-15,40l-15-40v-85c0-8.28,6.72-15,15-15c4.14,0,7.89,1.68,10.6,4.4
					C124.32,173.11,126,176.86,126,181z" class="colorfbd864 svgShape"></path>
      <path fill="#ff8a5c" d="M226,106h20c-11.05,0-20,8.95-20,20v20v140v25.67c0,13.441-10.89,24.33-24.33,24.33H156H66
					V129.67C66,116.6,76.6,106,89.67,106H226z M126,266v-85c0-4.14-1.68-7.89-4.4-10.6c-2.71-2.72-6.46-4.4-10.6-4.4
					c-8.28,0-15,6.72-15,15v85l15,40L126,266z" class="colorf36c4f svgShape"></path>
      <path d="M336,474H156c-4.419,0-8-3.582-8-8V336c0-4.418,3.581-8,8-8s8,3.582,8,8v122h164V346c0-4.418,3.582-8,8-8h52v-82
					c0-4.419,3.582-8,8-8h39.754l-17.515-70.06C418.08,177.306,418,176.654,418,176c0-68.411-53.589-122-122-122h-10
					c-24.522,0-48.098,7.108-68.178,20.557c-3.671,2.459-8.641,1.476-11.099-2.195c-2.459-3.671-1.476-8.64,2.195-11.099
					C231.642,46.044,258.297,38,286,38h10c37.085,0,71.802,14.293,97.754,40.246c25.721,25.72,39.988,60.046,40.242,96.756
					l19.765,79.058c0.598,2.39,0.061,4.922-1.455,6.863C450.79,262.865,448.464,264,446,264h-42v82c0,4.418-3.582,8-8,8h-52v112
					C344,470.418,340.418,474,336,474z"></path>
      <path d="M336 354h-50c-4.418 0-8-3.582-8-8s3.582-8 8-8h50c4.418 0 8 3.582 8 8S340.418 354 336 354zM201.67 344H66c-4.418 0-8-3.582-8-8V129.67C58 112.207 72.207 98 89.67 98H246c4.418 0 8 3.581 8 8s-3.582 8-8 8H89.67C81.029 114 74 121.029 74 129.67V328h127.67c9.004 0 16.33-7.325 16.33-16.33V286c0-4.418 3.581-8 8-8 4.418 0 8 3.582 8 8v25.67C234 329.497 219.497 344 201.67 344z"></path>
      <path d="M226,294c-4.419,0-8-3.582-8-8V126c0-15.439,12.561-28,28-28s28,12.561,28,28v10c0,4.419-3.582,8-8,8s-8-3.581-8-8v-10
					c0-6.617-5.383-12-12-12s-12,5.383-12,12v160C234,290.418,230.418,294,226,294z"></path>
      <path d="M286,294c-15.44,0-28-12.56-28-28V136c0-4.419,3.582-8,8-8s8,3.581,8,8v130c0,6.617,5.383,12,12,12
					c6.617,0,12-5.383,12-12v-60c0-4.419,3.582-8,8-8s8,3.581,8,8v60C314,281.44,301.439,294,286,294z"></path>
      <path d="M286 294h-60c-4.419 0-8-3.582-8-8s3.581-8 8-8h60c4.418 0 8 3.582 8 8S290.418 294 286 294zM196 474c-4.419 0-8-3.582-8-8v-80c0-4.418 3.581-8 8-8 4.418 0 8 3.582 8 8v80C204 470.418 200.418 474 196 474zM111 314c-3.335 0-6.32-2.068-7.491-5.191l-15-40C88.172 267.911 88 266.959 88 266v-85c0-12.682 10.318-23 23-23 6.151 0 11.928 2.398 16.267 6.753C131.602 169.072 134 174.849 134 181v85c0 .959-.172 1.911-.509 2.809l-15 40C117.32 311.932 114.335 314 111 314zM104 264.55l7 18.666 7-18.666V181c0-1.866-.727-3.618-2.046-4.933-1.335-1.34-3.087-2.067-4.954-2.067-3.86 0-7 3.14-7 7V264.55z"></path>
    </svg>
  </g>
</svg>